<?xml version="1.0" encoding="utf-8"?>
<!-- Generator: Adobe Illustrator 24.0.2, SVG Export Plug-In . SVG Version: 6.00 Build 0)  -->
<svg version="1.1" id="Layer_1" xmlns="http://www.w3.org/2000/svg" xmlns:xlink="http://www.w3.org/1999/xlink" x="0px" y="0px"
	 viewBox="0 0 150 150" style="enable-background:new 0 0 150 150;" xml:space="preserve">
<style type="text/css">
	.st0{fill:#FFFFFF;}
</style>
<g>
	<path class="st0" d="M75.82,53.74c-1.06,0-1.93,0.86-1.93,1.93s0.86,1.93,1.93,1.93s1.93-0.86,1.93-1.93S76.88,53.74,75.82,53.74z"
		/>
	<path class="st0" d="M82.35,47.21c-1.06,0-1.93,0.86-1.93,1.93s0.86,1.93,1.93,1.93s1.93-0.86,1.93-1.93S83.42,47.21,82.35,47.21z"
		/>
	<path class="st0" d="M88.89,53.74c-1.06,0-1.93,0.86-1.93,1.93s0.86,1.93,1.93,1.93c1.06,0,1.93-0.86,1.93-1.93
		S89.95,53.74,88.89,53.74z"/>
	<path class="st0" d="M82.35,34.13c-1.06,0-1.93,0.86-1.93,1.93c0,1.06,0.86,1.93,1.93,1.93s1.93-0.86,1.93-1.93
		C84.28,35,83.42,34.13,82.35,34.13z"/>
	<path class="st0" d="M101.47,22.28v33.53l-16.7-33.66c1.4-0.78,2.37-2.26,2.37-3.99c0-2.53-2.05-4.58-4.58-4.58
		s-4.58,2.05-4.58,4.58c0,1.72,0.96,3.2,2.37,3.99L63.65,55.8V22.28H25.22V60.4v38.43v11.55c2.37-0.86,8.21-2.37,15.09,0.3
		c0.54,0.21,0.81,0.82,0.6,1.36c-0.21,0.54-0.82,0.81-1.36,0.6c-7.17-2.78-13.22-0.48-14.33,0v0.05
		C16.13,117,9.83,126.23,9.83,136.96h15.39h38.35h0.08V98.83h37.82v11.6c2.28-0.85,8.22-2.47,15.23,0.25
		c0.54,0.21,0.81,0.82,0.6,1.36c-0.21,0.54-0.82,0.81-1.36,0.6c-7.9-3.06-14.46,0.05-14.53,0.08c0,0-0.01,0-0.01,0
		c-9.05,4.32-15.31,13.53-15.31,24.23h15.39h38.35h0.08V98.83V60.4V22.28H101.47z M64.64,72.35c0-1,0.81-1.82,1.82-1.82
		s1.82,0.81,1.82,1.82s-0.81,1.82-1.82,1.82S64.64,73.36,64.64,72.35z M81.24,89.22c-3.38,0-6.56-0.65-8.96-1.84
		c-3.1-1.53-4.8-3.91-4.8-6.71c0-1.13,0.91-2.04,2.04-2.04c1.13,0,2.04,0.91,2.04,2.04c0,2.79,4.92,4.46,9.68,4.46
		c4.76,0,9.68-1.67,9.68-4.46c0-1.13,0.91-2.04,2.04-2.04c1.13,0,2.04,0.91,2.04,2.04C95.01,86.55,87.87,89.22,81.24,89.22z
		 M96.3,74.17c-1,0-1.82-0.81-1.82-1.82s0.81-1.82,1.82-1.82s1.82,0.81,1.82,1.82S97.3,74.17,96.3,74.17z M65.93,60.4l8.31-16.76
		c0.35,0.52,0.91,0.88,1.57,0.88c1.06,0,1.93-0.86,1.93-1.93s-0.86-1.93-1.93-1.93c-0.04,0-0.07,0.02-0.11,0.02l6.86-13.82
		l6.9,13.91c-0.18-0.06-0.37-0.12-0.57-0.12c-1.06,0-1.93,0.86-1.93,1.93s0.86,1.93,1.93,1.93c0.83,0,1.53-0.53,1.79-1.27
		l8.51,17.15H65.93z"/>
</g>
</svg>
